<?xml version="1.0" standalone="no"?>
<!DOCTYPE svg PUBLIC "-//W3C//DTD SVG 20010904//EN"
 "http://www.w3.org/TR/2001/REC-SVG-20010904/DTD/svg10.dtd">
<svg version="1.0" xmlns="http://www.w3.org/2000/svg"
 width="512.000000pt" height="512.000000pt" viewBox="0 0 512.000000 512.000000"
 preserveAspectRatio="xMidYMid meet">
<metadata>
Created by potrace 1.11, written by Peter Selinger 2001-2013
</metadata>
<g transform="translate(0.000000,512.000000) scale(0.100000,-0.100000)"
fill="#000000" stroke="none">
<path d="M2330 5110 c-775 -81 -1454 -491 -1882 -1136 -208 -313 -343 -679
-399 -1084 -17 -121 -17 -485 0 -610 101 -745 499 -1389 1116 -1802 504 -337
1147 -486 1743 -403 513 72 994 296 1373 641 372 339 630 772 754 1269 54 215
69 341 69 595 1 315 -30 516 -125 804 -120 364 -337 714 -614 991 -395 394
-875 634 -1440 721 -119 18 -475 26 -595 14z m880 -1887 c90 -225 215 -534
278 -688 62 -154 147 -365 188 -470 42 -104 78 -196 81 -203 4 -10 -39 -12
-212 -10 l-217 3 -22 60 c-13 33 -42 113 -65 178 l-43 117 -341 -2 -341 -3
-65 -177 -66 -178 -151 0 c-83 0 -238 3 -345 7 l-194 6 -52 61 c-29 34 -67 83
-84 109 -18 27 -53 72 -78 100 -26 29 -54 63 -63 77 -26 42 -259 335 -269 338
-5 2 -9 -136 -9 -342 l0 -346 -195 0 -195 0 0 881 0 880 378 -3 c341 -4 384
-6 448 -25 186 -53 308 -174 349 -344 17 -75 19 -192 4 -275 -27 -149 -132
-281 -273 -345 -42 -19 -76 -36 -76 -39 0 -6 161 -202 254 -310 36 -41 78 -93
94 -115 37 -52 87 -105 99 -105 5 0 128 294 273 653 144 358 288 712 318 785
l55 132 186 0 187 0 164 -407z m1091 -925 c106 -36 169 -123 169 -232 -1 -220
-258 -325 -414 -170 -49 50 -61 82 -61 169 0 55 5 89 17 110 55 102 187 158
289 123z"/>
<path d="M1140 3075 l0 -248 103 6 c116 7 160 18 208 50 69 47 102 153 79 260
-14 71 -34 96 -111 137 -56 29 -72 33 -170 38 l-109 5 0 -248z"/>
<path d="M2839 3043 c-128 -334 -172 -451 -176 -465 -5 -17 9 -18 196 -18 110
0 201 2 201 3 0 2 -26 71 -59 153 -32 82 -76 195 -96 252 -21 56 -42 102 -47
102 -5 0 -13 -12 -19 -27z"/>
</g>
</svg>
